<svg xmlns:xlink="http://www.w3.org/1999/xlink" class="lucide lucide-codesandbox" fill="none" height="24" stroke="currentColor" stroke-linecap="round" stroke-linejoin="round" stroke-width="2" viewBox="0 0 24 24" width="24" xmlns="http://www.w3.org/2000/svg">
            <path d="M21 16V8a2 2 0 0 0-1-1.73l-7-4a2 2 0 0 0-2 0l-7 4A2 2 0 0 0 3 8v8a2 2 0 0 0 1 1.73l7 4a2 2 0 0 0 2 0l7-4A2 2 0 0 0 21 16z" stroke="#000000" fill="none" stroke-width="2px"></path>
            <polyline points="7.5 4.21 12 6.81 16.5 4.21" stroke="#000000" fill="none" stroke-width="2px"></polyline>
            <polyline points="7.5 19.79 7.5 14.6 3 12" stroke="#000000" fill="none" stroke-width="2px"></polyline>
            <polyline points="21 12 16.5 14.6 16.5 19.79" stroke="#000000" fill="none" stroke-width="2px"></polyline>
            <polyline points="3.27 6.96 12 12.01 20.73 6.96" stroke="#000000" fill="none" stroke-width="2px"></polyline>
            <line x1="12" x2="12" y1="22.08" y2="12" stroke="#000000" fill="none" stroke-width="2px"></line>
        </svg>